<?xml version="1.0" encoding="utf-8"?>
<!-- Generator: Adobe Illustrator 16.0.0, SVG Export Plug-In . SVG Version: 6.00 Build 0)  -->
<!DOCTYPE svg PUBLIC "-//W3C//DTD SVG 1.1//EN" "http://www.w3.org/Graphics/SVG/1.1/DTD/svg11.dtd">
<svg version="1.1" id="Layer_1" xmlns="http://www.w3.org/2000/svg" xmlns:xlink="http://www.w3.org/1999/xlink" x="0px" y="0px"
	 width="80px" height="80px" viewBox="0 0 80 80" enable-background="new 0 0 80 80" xml:space="preserve">
<rect fill="#2E2E2E" width="80" height="80"/>
<path fill="#EE2A7B" d="M21.419,66.871c-0.782,0-1.564-0.202-2.264-0.608c-1.393-0.808-2.249-2.295-2.249-3.905V17.438
	c0-1.61,0.858-3.096,2.249-3.904c1.394-0.81,3.109-0.813,4.506-0.012l39.221,22.459c1.403,0.804,2.27,2.297,2.27,3.916
	c0,1.618-0.866,3.111-2.27,3.917L23.662,66.274C22.965,66.672,22.192,66.871,21.419,66.871z"/>
<g>
	<g>
		<defs>
			<path id="SVGID_1_" d="M21.419,66.871c-0.782,0-1.564-0.202-2.264-0.608c-1.393-0.808-2.249-2.295-2.249-3.905V17.438
				c0-1.61,0.858-3.096,2.249-3.904c1.394-0.81,3.109-0.813,4.506-0.012l39.221,22.459c1.403,0.804,2.27,2.297,2.27,3.916
				c0,1.618-0.866,3.111-2.27,3.917L23.662,66.274C22.965,66.672,22.192,66.871,21.419,66.871z"/>
		</defs>
		<clipPath id="SVGID_2_">
			<use xlink:href="#SVGID_1_"  overflow="visible"/>
		</clipPath>
		<path clip-path="url(#SVGID_2_)" fill="#FFFFFF" d="M16.199,57.738c2.02-3.986,5.945-10.934,6.96-12.986
			c-3.14-2.33-7.167-6.727-10.192-9.967c5.117,0.129,10.284,0.382,16.009,0c2.579-3.941,7.207-11.792,9.307-16.426
			c0.373-0.848,2.303,10.167,2.79,16.644c2.425,0.331,8.069-0.087,12.116-0.425l4.527-0.509l-4.35,3.417
			c-4.645,3.56-10.91,7.966-10.91,7.966s0.925,5.24,1.084,11.797L39.91,59.41c-3.004-3.564-6.657-7.254-7.921-8.178
			c-1.538,1.186-12.092,7.115-15.568,9.037L16.199,57.738z"/>
	</g>
</g>
</svg>
